<?xml version="1.0" encoding="UTF-8"?>
<svg version="1.1" xmlns="http://www.w3.org/2000/svg" width="468" height="330">
<path d="M0 0 C20.46 0 40.92 0 62 0 C62 20.46 62 40.92 62 62 C41.54 62 21.08 62 0 62 C0 55.4 0 48.8 0 42 C-6.33788015 41.88957502 -12.65784704 41.81389418 -18.99414062 41.82299805 C-21.14338376 41.81606812 -23.29266258 41.78976753 -25.44140625 41.74291992 C-39.44235745 41.03081858 -39.44235745 41.03081858 -51.6383667 46.79240417 C-53.91451716 49.06597496 -55.94545452 51.52669775 -58 54 C-59.84060363 55.58257366 -61.71125093 57.13170645 -63.625 58.625 C-67.43591178 61.61384187 -67.43591178 61.61384187 -70.68096924 65.17817688 C-74.60758857 69.72710831 -77.76903068 72.10482773 -83.72531128 72.79486084 C-89.69490135 73.15997258 -95.65759102 73.01286786 -101.6328125 72.87890625 C-103.83809807 72.86210037 -106.04341746 72.84929856 -108.24874878 72.84031677 C-114.02655361 72.80610869 -119.8022913 72.71783763 -125.57928467 72.61798096 C-131.4848637 72.52557445 -137.39077992 72.48473664 -143.296875 72.43945312 C-154.86548686 72.34320538 -166.43257091 72.18979226 -178 72 C-178 77.28 -178 82.56 -178 88 C-152.59 88 -127.18 88 -101 88 C-98 95 -98 95 -95 110 C-77.18 110 -59.36 110 -41 110 C-41 103.4 -41 96.8 -41 90 C-20.54 90 -0.08 90 21 90 C21 110.79 21 131.58 21 153 C0.54 153 -19.92 153 -41 153 C-41 146.07 -41 139.14 -41 132 C-101.06 132 -161.12 132 -223 132 C-223 137.28 -223 142.56 -223 148 C-180.43 148 -137.86 148 -94 148 C-96 165 -96 165 -97 169 C-96.22929169 168.95780838 -95.45858337 168.91561676 -94.66452026 168.87214661 C-87.34107768 168.48877126 -80.02259113 168.2009638 -72.691679 168.01556873 C-68.92334879 167.9170204 -65.16340113 167.78395365 -61.39990234 167.56665039 C-37.15454996 166.20273997 -37.15454996 166.20273997 -30.28424072 170.82852173 C-25.86535163 175.21027779 -22.90645126 180.19214006 -20.17776489 185.74629211 C-18.52456602 188.90976502 -16.46456722 191.37474318 -14.125 194.0625 C-11 197.78242678 -11 197.78242678 -11 200 C4.18 200 19.36 200 35 200 C35 192.74 35 185.48 35 178 C55.79 178 76.58 178 98 178 C98 198.79 98 219.58 98 241 C77.21 241 56.42 241 35 241 C35 234.73 35 228.46 35 222 C32.51992432 222.14139404 32.51992432 222.14139404 29.98974609 222.28564453 C24.47127944 222.57817717 18.95393195 222.78367338 13.429739 222.93261909 C10.08341874 223.02592751 6.75196135 223.16159067 3.40917969 223.35791016 C-18.04028497 224.58519815 -18.04028497 224.58519815 -24.49890137 220.36853027 C-28.04856524 217.002724 -30.63013569 213.27597317 -33.09130859 209.06982422 C-33.56441971 208.27265991 -34.03753082 207.47549561 -34.52497864 206.6541748 C-36 204 -36 204 -37.39042664 200.76672363 C-39.4097757 196.99415499 -41.25086914 194.10509692 -45 192 C-53.8125649 189.69596214 -63.32430374 190.46605695 -72.34765625 190.609375 C-75.04770217 190.61597441 -77.74759252 190.60456065 -80.44761658 190.59356689 C-86.81235341 190.57790986 -93.17512489 190.62300668 -99.53946537 190.69038892 C-106.78988037 190.76416057 -114.03985318 190.76951484 -121.29058468 190.76935911 C-136.19450363 190.77055956 -151.09669729 190.85933418 -166 191 C-166 196.28 -166 201.56 -166 207 C-147.85 207 -129.7 207 -111 207 C-112.38296859 211.14890578 -113.60072059 214.41065972 -115.6015625 218.1796875 C-116.33632813 219.571875 -116.33632813 219.571875 -117.0859375 220.9921875 C-117.59382812 221.94351563 -118.10171875 222.89484375 -118.625 223.875 C-119.140625 224.84953125 -119.65625 225.8240625 -120.1875 226.828125 C-121.45428286 229.22093706 -122.72521318 231.61144536 -124 234 C-122.78183594 233.99097656 -121.56367188 233.98195312 -120.30859375 233.97265625 C-107.66027861 234.11038031 -107.66027861 234.11038031 -103.4921875 236.34375 C-101.8125 238.0625 -101.8125 238.0625 -100.49389648 239.91040039 C-95.32709363 247.13750705 -88.80951984 253.29015662 -82.5 259.5 C-77.30403052 264.61388465 -72.21658687 269.73568048 -67.49023438 275.29101562 C-66.99845703 275.85498047 -66.50667969 276.41894531 -66 277 C-65.5464917 277.55856689 -65.0929834 278.11713379 -64.62573242 278.69262695 C-62.37434878 280.50313295 -60.75940682 280.42891888 -57.89453125 280.51171875 C-56.91162109 280.54716797 -55.92871094 280.58261719 -54.91601562 280.61914062 C-53.89185547 280.64169922 -52.86769531 280.66425781 -51.8125 280.6875 C-50.77673828 280.72166016 -49.74097656 280.75582031 -48.67382812 280.79101562 C-46.11626736 280.87351759 -43.55815037 280.93843456 -41 281 C-41 274.4 -41 267.8 -41 261 C-20.54 261 -0.08 261 21 261 C21 281.13 21 301.26 21 322 C0.54 322 -19.92 322 -41 322 C-41 315.73 -41 309.46 -41 303 C-44.27357422 303.20882812 -44.27357422 303.20882812 -47.61328125 303.421875 C-53.47985295 303.7200979 -59.33769458 303.85268585 -65.2109375 303.73046875 C-66.23306084 303.73460785 -66.23306084 303.73460785 -67.27583313 303.73883057 C-72.90950334 303.55073384 -75.42535685 301.74340291 -79.4375 298.0625 C-80.53451555 296.37185264 -81.62867871 294.67829187 -82.66162109 292.94775391 C-85.44773006 288.89310645 -89.21531683 285.6441183 -92.75 282.25 C-96.81130494 278.27339189 -100.80426965 274.29257346 -104.515625 269.984375 C-105.33622406 269.06582733 -105.33622406 269.06582733 -106.17340088 268.12872314 C-108 266 -108 266 -109.4475708 263.89605713 C-112.51123442 259.97603364 -114.85669116 258.22174029 -119.8069458 257.26165771 C-124.6287672 256.87429978 -129.44818707 256.94274202 -134.28125 257 C-136.06345385 256.99247431 -137.845646 256.98143404 -139.62780762 256.96704102 C-144.29710774 256.93870225 -148.96503052 256.95783383 -153.63427734 256.98712158 C-158.40731636 257.00857139 -163.18011104 256.98475752 -167.953125 256.96484375 C-177.30253309 256.93246182 -186.65064644 256.95445511 -196 257 C-196 262.28 -196 267.56 -196 273 C-175.87 273 -155.74 273 -135 273 C-133.35 278.94 -131.7 284.88 -130 291 C-127.68886825 296.62105861 -127.68886825 296.62105861 -125.234375 302.1796875 C-124.22648074 304.48253451 -123.49748402 306.54811449 -123 309 C-145.58102736 321.48597983 -171.59350909 326.26743477 -197 329 C-197.89396484 329.09788818 -198.78792969 329.19577637 -199.70898438 329.29663086 C-208.55870727 330.1551748 -217.36991129 330.11366816 -226.25 330.0625 C-227.78515478 330.05747043 -229.32031116 330.05291012 -230.85546875 330.04882812 C-234.5703467 330.03794839 -238.28516259 330.02076577 -242 330 C-242.2630896 329.12432373 -242.2630896 329.12432373 -242.53149414 328.23095703 C-247.38866884 309.81513172 -247.38866884 309.81513172 -259.875 296.375 C-269.68754676 292.63250031 -281.01624932 296.17900437 -290.99267578 298.01464844 C-299.4442046 299.5555674 -307.66714833 301.04230628 -316 298 C-319.28191678 294.87436498 -320.93962823 292.41696106 -321.1328125 287.8828125 C-321.13023437 286.64273437 -321.12765625 285.40265625 -321.125 284.125 C-321.12757813 282.89007813 -321.13015625 281.65515625 -321.1328125 280.3828125 C-321.02584156 277.6581998 -320.75014986 275.58006088 -320 273 C-319.5 269.5 -319.5 269.5 -320 266 C-323.14040741 262.67486274 -326.90498874 260.95443719 -331 259 C-332 258 -332 258 -332.3125 255.3125 C-331.92869447 251.24416142 -330.37237738 249.2620189 -328 246 C-328 245.34 -328 244.68 -328 244 C-328.94875 243.54625 -329.8975 243.0925 -330.875 242.625 C-334 241 -334 241 -336 239 C-337.19873744 235.1366777 -336.87607372 232.81704597 -335.5 229.0625 C-334.18565493 224.96125659 -333.4459364 222.17654593 -335 218 C-338.85448268 213.41133015 -342.75818881 211.49759044 -348.1875 209.375 C-355.74093108 206.38860339 -355.74093108 206.38860339 -358 203 C-359.22482909 195.82600106 -354.83079254 189.68005752 -350.9453125 183.9921875 C-350.20023437 182.94289062 -349.45515625 181.89359375 -348.6875 180.8125 C-335.92134064 162.83353677 -330.65558453 145.76340657 -331.11694336 123.59838867 C-331.67876131 94.44800747 -324.15257737 69.03393503 -303.7109375 47.5859375 C-278.15451211 23.20790636 -244.7948405 14.43500297 -210.23046875 14.78125 C-201.65179277 14.99160834 -193.37970927 16.20738354 -185 18 C-184.33709961 18.13921875 -183.67419922 18.2784375 -182.99121094 18.421875 C-165.10944343 22.31744916 -138.96902298 32.12585231 -127.86694336 47.5769043 C-124.88630905 49.84892174 -121.53681045 49.62820362 -117.921875 49.75 C-117.12259583 49.78184387 -116.32331665 49.81368774 -115.49981689 49.84649658 C-112.91610207 49.92893622 -110.33487084 49.97285503 -107.75 50 C-106.87730469 50.00946655 -106.00460938 50.01893311 -105.10546875 50.02868652 C-92.11314017 50.31396625 -92.11314017 50.31396625 -80.67822266 44.95092773 C-78.44935942 42.69190967 -76.42766128 40.34786092 -74.50097656 37.82666016 C-71.8492869 34.59960387 -68.59256702 32.07836467 -65.375 29.4375 C-64.25604173 28.47992994 -63.13874553 27.52041288 -62.0234375 26.55859375 C-60.52683594 25.29208984 -60.52683594 25.29208984 -59 24 C-58.04951782 22.94292847 -58.04951782 22.94292847 -57.07983398 21.86450195 C-52.1891888 18.90375227 -47.30212219 19.50925818 -41.69921875 19.609375 C-40.50770706 19.61503479 -39.31619537 19.62069458 -38.08857727 19.62652588 C-34.28780731 19.64889315 -30.48798443 19.69909315 -26.6875 19.75 C-24.10873758 19.77006441 -21.52996037 19.78831528 -18.95117188 19.8046875 C-12.63375038 19.84875958 -6.3170357 19.91779222 0 20 C0 13.4 0 6.8 0 0 Z M20 19 C20 26.59 20 34.18 20 42 C27.26 42 34.52 42 42 42 C42 34.41 42 26.82 42 19 C34.74 19 27.48 19 20 19 Z M-21 110 C-21 117.59 -21 125.18 -21 133 C-13.74 133 -6.48 133 1 133 C1 125.41 1 117.82 1 110 C-6.26 110 -13.52 110 -21 110 Z M55 198 C55 205.26 55 212.52 55 220 C62.59 220 70.18 220 78 220 C78 212.74 78 205.48 78 198 C70.41 198 62.82 198 55 198 Z M-21 281 C-21 288.59 -21 296.18 -21 304 C-13.74 304 -6.48 304 1 304 C1 296.41 1 288.82 1 281 C-6.26 281 -13.52 281 -21 281 Z " fill="#F8CB03" transform="translate(358,0)"/>
<path d="M0 0 C79.53 0 159.06 0 241 0 C239.61703141 4.14890578 238.39927941 7.41065972 236.3984375 11.1796875 C235.66367187 12.571875 235.66367187 12.571875 234.9140625 13.9921875 C234.40617188 14.94351563 233.89828125 15.89484375 233.375 16.875 C232.6015625 18.33679688 232.6015625 18.33679688 231.8125 19.828125 C230.54571714 22.22093706 229.27478682 24.61144536 228 27 C229.21816406 26.99097656 230.43632812 26.98195312 231.69140625 26.97265625 C244.33972139 27.11038031 244.33972139 27.11038031 248.5078125 29.34375 C250.1875 31.0625 250.1875 31.0625 251.50610352 32.91040039 C256.67290637 40.13750705 263.19048016 46.29015662 269.5 52.5 C274.69596948 57.61388465 279.78341313 62.73568048 284.50976562 68.29101562 C285.00154297 68.85498047 285.49332031 69.41894531 286 70 C286.4535083 70.55856689 286.9070166 71.11713379 287.37426758 71.69262695 C289.62565122 73.50313295 291.24059318 73.42891888 294.10546875 73.51171875 C295.08837891 73.54716797 296.07128906 73.58261719 297.08398438 73.61914062 C298.10814453 73.64169922 299.13230469 73.66425781 300.1875 73.6875 C301.74114258 73.73874023 301.74114258 73.73874023 303.32617188 73.79101562 C305.88373264 73.87351759 308.44184963 73.93843456 311 74 C311 67.4 311 60.8 311 54 C331.46 54 351.92 54 373 54 C373 74.13 373 94.26 373 115 C352.54 115 332.08 115 311 115 C311 108.73 311 102.46 311 96 C307.72642578 96.20882812 307.72642578 96.20882812 304.38671875 96.421875 C298.52014705 96.7200979 292.66230542 96.85268585 286.7890625 96.73046875 C285.76693916 96.73460785 285.76693916 96.73460785 284.72416687 96.73883057 C279.09049666 96.55073384 276.57464315 94.74340291 272.5625 91.0625 C271.46548445 89.37185264 270.37132129 87.67829187 269.33837891 85.94775391 C266.55226994 81.89310645 262.78468317 78.6441183 259.25 75.25 C255.18869506 71.27339189 251.19573035 67.29257346 247.484375 62.984375 C246.66377594 62.06582733 246.66377594 62.06582733 245.82659912 61.12872314 C244 59 244 59 242.5524292 56.89605713 C239.48876558 52.97603364 237.14330884 51.22174029 232.1930542 50.26165771 C227.3712328 49.87429978 222.55181293 49.94274202 217.71875 50 C215.93654615 49.99247431 214.154354 49.98143404 212.37219238 49.96704102 C207.70289226 49.93870225 203.03496948 49.95783383 198.36572266 49.98712158 C193.59268364 50.00857139 188.81988896 49.98475752 184.046875 49.96484375 C174.69746691 49.93246182 165.34935356 49.95445511 156 50 C156 55.28 156 60.56 156 66 C176.13 66 196.26 66 217 66 C218.65 71.94 220.3 77.88 222 84 C224.31113175 89.62105861 224.31113175 89.62105861 226.765625 95.1796875 C227.77351926 97.48253451 228.50251598 99.54811449 229 102 C206.41897264 114.48597983 180.40649091 119.26743477 155 122 C153.65905273 122.14683228 153.65905273 122.14683228 152.29101562 122.29663086 C143.44129273 123.1551748 134.63008871 123.11366816 125.75 123.0625 C124.21484522 123.05747043 122.67968884 123.05291012 121.14453125 123.04882812 C117.4296533 123.03794839 113.71483741 123.02076577 110 123 C109.82460693 122.41621582 109.64921387 121.83243164 109.46850586 121.23095703 C104.61133116 102.81513172 104.61133116 102.81513172 92.125 89.375 C82.31245324 85.63250031 70.98375068 89.17900437 61.00732422 91.01464844 C52.5557954 92.5555674 44.33285167 94.04230628 36 91 C32.71808322 87.87436498 31.06037177 85.41696106 30.8671875 80.8828125 C30.86976562 79.64273438 30.87234375 78.40265625 30.875 77.125 C30.87242188 75.89007813 30.86984375 74.65515625 30.8671875 73.3828125 C30.97415844 70.6581998 31.24985014 68.58006088 32 66 C32.5 62.5 32.5 62.5 32 59 C28.85959259 55.67486274 25.09501126 53.95443719 21 52 C20 51 20 51 19.6875 48.3125 C20.07130553 44.24416142 21.62762262 42.2620189 24 39 C24 38.34 24 37.68 24 37 C23.05125 36.54625 22.1025 36.0925 21.125 35.625 C18 34 18 34 16 32 C14.80126256 28.1366777 15.12392628 25.81704597 16.5 22.0625 C17.81434507 17.96125659 18.5540636 15.17654593 17 11 C12.90088365 5.20469757 6.45569657 3.41959919 0 1 C0 0.67 0 0.34 0 0 Z M331 74 C331 81.59 331 89.18 331 97 C338.26 97 345.52 97 353 97 C353 89.41 353 81.82 353 74 C345.74 74 338.48 74 331 74 Z " fill="#3C9DD7" transform="translate(6,207)"/>
<path d="M0 0 C35.64 0 71.28 0 108 0 C108 5.28 108 10.56 108 16 C150.57 16 193.14 16 237 16 C235 33 235 33 234 37 C234.77070831 36.95780838 235.54141663 36.91561676 236.33547974 36.87214661 C243.65892232 36.48877126 250.97740887 36.2009638 258.308321 36.01556873 C262.07665121 35.9170204 265.83659887 35.78395365 269.60009766 35.56665039 C293.84545004 34.20273997 293.84545004 34.20273997 300.71575928 38.82852173 C305.13464837 43.21027779 308.09354874 48.19214006 310.82223511 53.74629211 C312.47543398 56.90976502 314.53543278 59.37474318 316.875 62.0625 C320 65.78242678 320 65.78242678 320 68 C335.18 68 350.36 68 366 68 C366 60.74 366 53.48 366 46 C386.79 46 407.58 46 429 46 C429 66.79 429 87.58 429 109 C408.21 109 387.42 109 366 109 C366 102.73 366 96.46 366 90 C364.34661621 90.0942627 362.69323242 90.18852539 360.98974609 90.28564453 C355.47127944 90.57817717 349.95393195 90.78367338 344.429739 90.93261909 C341.08341874 91.02592751 337.75196135 91.16159067 334.40917969 91.35791016 C312.95971503 92.58519815 312.95971503 92.58519815 306.50109863 88.36853027 C302.95143476 85.002724 300.36986431 81.27597317 297.90869141 77.06982422 C297.43558029 76.27265991 296.96246918 75.47549561 296.47502136 74.6541748 C295 72 295 72 293.60957336 68.76672363 C291.5902243 64.99415499 289.74913086 62.10509692 286 60 C277.1874351 57.69596214 267.67569626 58.46605695 258.65234375 58.609375 C255.95229783 58.61597441 253.25240748 58.60456065 250.55238342 58.59356689 C244.18764659 58.57790986 237.82487511 58.62300668 231.46053463 58.69038892 C224.21011963 58.76416057 216.96014682 58.76951484 209.70941532 58.76935911 C194.80549637 58.77055956 179.90330271 58.85933418 165 59 C165 64.28 165 69.56 165 75 C140.5569593 75.09253085 116.11396066 75.16394506 91.67078018 75.20724869 C80.32180068 75.22788827 68.97293189 75.25603559 57.62402344 75.30175781 C47.73419807 75.34158278 37.84445287 75.36742265 27.95454955 75.37635398 C22.71618336 75.38157607 17.47804652 75.39387893 12.23975372 75.42292023 C7.31171753 75.45002072 2.38400573 75.45845586 -2.5440979 75.45243073 C-4.35495007 75.45353337 -6.16581281 75.46151913 -7.97660065 75.4768219 C-10.44539347 75.49666625 -12.91295476 75.4919601 -15.3817749 75.48101807 C-16.10162182 75.49266943 -16.82146873 75.5043208 -17.56312919 75.51632524 C-20.95430178 75.47557958 -22.712551 75.21973943 -25.44098282 73.13399887 C-27 71 -27 71 -27.5625 68.375 C-26.31415783 60.88494699 -22.01505442 54.90701436 -17.6875 48.8125 C-6.65224145 33.27121603 -1.39095253 19.47333547 0 0 Z M386 66 C386 73.26 386 80.52 386 88 C393.59 88 401.18 88 409 88 C409 80.74 409 73.48 409 66 C401.41 66 393.82 66 386 66 Z " fill="#D62382" transform="translate(27,132)"/>
<path d="M0 0 C20.46 0 40.92 0 62 0 C62 20.46 62 40.92 62 62 C41.54 62 21.08 62 0 62 C0 55.4 0 48.8 0 42 C-6.33788015 41.88957502 -12.65784704 41.81389418 -18.99414062 41.82299805 C-21.14338376 41.81606812 -23.29266258 41.78976753 -25.44140625 41.74291992 C-39.44235745 41.03081858 -39.44235745 41.03081858 -51.6383667 46.79240417 C-53.91451716 49.06597496 -55.94545452 51.52669775 -58 54 C-59.84060363 55.58257366 -61.71125093 57.13170645 -63.625 58.625 C-67.43136033 61.6060725 -67.43136033 61.6060725 -70.65897942 65.17315578 C-74.58346122 69.74973618 -77.79651199 72.10114733 -83.76105118 72.82055855 C-89.92434491 73.23005054 -96.08614434 73.11402053 -102.25830078 73.02172852 C-104.63412885 73.01918788 -107.00996399 73.02061869 -109.38578796 73.02571106 C-115.81743201 73.02828829 -122.24755859 72.97545862 -128.67885065 72.91254544 C-134.72435222 72.85758836 -140.76998054 72.85292833 -146.81569003 72.84367859 C-158.78431281 72.82401837 -170.75238111 72.76422717 -182.72070312 72.67895508 C-194.34144329 72.59624593 -205.96203243 72.53258857 -217.58300781 72.49438477 C-218.30024651 72.49202025 -219.01748521 72.48965574 -219.75645842 72.48721958 C-223.3549123 72.47547358 -226.95336724 72.46410037 -230.5518229 72.45291245 C-260.36827029 72.35972881 -290.18407007 72.20064139 -320 72 C-313.68751396 52.07594786 -293.9949255 37.47888609 -276.1640625 28.03515625 C-248.34844139 14.02272653 -215.15319738 11.54952347 -185 18 C-184.33709961 18.13921875 -183.67419922 18.2784375 -182.99121094 18.421875 C-165.10944343 22.31744916 -138.96902298 32.12585231 -127.86694336 47.5769043 C-124.88630905 49.84892174 -121.53681045 49.62820362 -117.921875 49.75 C-117.12259583 49.78184387 -116.32331665 49.81368774 -115.49981689 49.84649658 C-112.91610207 49.92893622 -110.33487084 49.97285503 -107.75 50 C-106.87730469 50.00946655 -106.00460938 50.01893311 -105.10546875 50.02868652 C-92.11314017 50.31396625 -92.11314017 50.31396625 -80.67822266 44.95092773 C-78.44935942 42.69190967 -76.42766128 40.34786092 -74.50097656 37.82666016 C-71.8492869 34.59960387 -68.59256702 32.07836467 -65.375 29.4375 C-64.25604173 28.47992994 -63.13874553 27.52041288 -62.0234375 26.55859375 C-60.52683594 25.29208984 -60.52683594 25.29208984 -59 24 C-58.04951782 22.94292847 -58.04951782 22.94292847 -57.07983398 21.86450195 C-52.1891888 18.90375227 -47.30212219 19.50925818 -41.69921875 19.609375 C-40.50770706 19.61503479 -39.31619537 19.62069458 -38.08857727 19.62652588 C-34.28780731 19.64889315 -30.48798443 19.69909315 -26.6875 19.75 C-24.10873758 19.77006441 -21.52996037 19.78831528 -18.95117188 19.8046875 C-12.63375038 19.84875958 -6.3170357 19.91779222 0 20 C0 13.4 0 6.8 0 0 Z M20 19 C20 26.59 20 34.18 20 42 C27.26 42 34.52 42 42 42 C42 34.41 42 26.82 42 19 C34.74 19 27.48 19 20 19 Z " fill="#3A4390" transform="translate(358,0)"/>
<path d="M0 0 C44.88 0 89.76 0 136 0 C136 5.61 136 11.22 136 17 C156.13 17 176.26 17 197 17 C198.65 22.94 200.3 28.88 202 35 C204.31113175 40.62105861 204.31113175 40.62105861 206.765625 46.1796875 C207.77351926 48.48253451 208.50251598 50.54811449 209 53 C186.41897264 65.48597983 160.40649091 70.26743477 135 73 C133.65905273 73.14683228 133.65905273 73.14683228 132.29101562 73.29663086 C123.44129273 74.1551748 114.63008871 74.11366816 105.75 74.0625 C104.21484522 74.05747043 102.67968884 74.05291012 101.14453125 74.04882812 C97.4296533 74.03794839 93.71483741 74.02076577 90 74 C89.82460693 73.41621582 89.64921387 72.83243164 89.46850586 72.23095703 C84.61133116 53.81513172 84.61133116 53.81513172 72.125 40.375 C62.31245324 36.63250031 50.98375068 40.17900437 41.00732422 42.01464844 C32.5557954 43.5555674 24.33285167 45.04230628 16 42 C12.71808322 38.87436498 11.06037177 36.41696106 10.8671875 31.8828125 C10.86976562 30.64273437 10.87234375 29.40265625 10.875 28.125 C10.87113281 26.27261719 10.87113281 26.27261719 10.8671875 24.3828125 C10.97415844 21.6581998 11.24985014 19.58006088 12 17 C12.5 13.5 12.5 13.5 12 10 C9.47036196 7.32155972 7.06537053 6.03142814 3.75 4.4375 C1 3 1 3 0 0 Z " fill="#763B8B" transform="translate(26,256)"/>
</svg>
